<svg width="280" height="226" viewBox="0 0 280 226" fill="none" xmlns="http://www.w3.org/2000/svg">
<path d="M150.667 30.7113L196.492 108.735C197.758 110.892 197.778 113.56 196.544 115.735L151.885 194.433C150.651 196.608 148.35 197.959 145.849 197.978L55.3661 198.651C52.8653 198.669 50.5446 197.353 49.278 195.196L3.45333 117.172C2.18682 115.016 2.16696 112.347 3.40124 110.172L48.0597 31.4748C49.294 29.2998 51.5949 27.9484 54.0957 27.9298L144.579 27.2565C147.08 27.2379 149.4 28.5548 150.667 30.7113Z" fill="url(#paint0_linear_2139_13)" stroke="black" stroke-width="4"/>
<path d="M230.669 29.7113L276.494 107.735C277.76 109.892 277.78 112.56 276.546 114.735L231.887 193.433C230.653 195.608 228.352 196.959 225.851 196.978L135.368 197.651C132.867 197.669 130.547 196.353 129.28 194.196L83.4553 116.172C82.1888 114.016 82.1689 111.347 83.4032 109.172L128.062 30.4748C129.296 28.2998 131.597 26.9484 134.098 26.9298L224.581 26.2565C227.082 26.2379 229.402 27.5548 230.669 29.7113Z" fill="url(#paint1_linear_2139_13)" stroke="black" stroke-width="4"/>
<path d="M198.179 17.161L252.012 108.82C253.188 110.823 253.207 113.301 252.061 115.32L199.598 207.771C198.452 209.79 196.315 211.045 193.993 211.062L87.6969 211.853C85.3748 211.871 83.2198 210.648 82.0438 208.645L28.2108 116.986C27.0348 114.984 27.0163 112.506 28.1624 110.486L80.6253 18.0358C81.7714 16.0161 83.908 14.7613 86.2301 14.744L192.526 13.953C194.848 13.9357 197.003 15.1586 198.179 17.161Z" fill="#01101E" stroke="url(#paint2_linear_2139_13)" stroke-width="3"/>
<defs>
<linearGradient id="paint0_linear_2139_13" x1="101.677" y1="341.961" x2="99.2562" y2="16.6972" gradientUnits="userSpaceOnUse">
<stop stop-color="#00ECFF"/>
<stop offset="1" stop-color="#006288"/>
</linearGradient>
<linearGradient id="paint1_linear_2139_13" x1="181.679" y1="340.961" x2="179.258" y2="15.6972" gradientUnits="userSpaceOnUse">
<stop stop-color="#00ECFF"/>
<stop offset="1" stop-color="#006288"/>
</linearGradient>
<linearGradient id="paint2_linear_2139_13" x1="142.096" y1="379.532" x2="139.278" y2="0.83402" gradientUnits="userSpaceOnUse">
<stop stop-color="#00ECFF"/>
<stop offset="1" stop-color="#006288"/>
</linearGradient>
</defs>
</svg>
